<?xml version="1.0" encoding="UTF-8"?>
<svg viewBox="0 0 500 500" xmlns="http://www.w3.org/2000/svg">
 <defs>
  <radialGradient id="a" cx=".5051" cy=".52736" r=".47473">
   <stop stop-color="#ff0004" stop-opacity=".65833" offset="0"/>
   <stop stop-color="#e48e17" stop-opacity="0" offset="1"/>
  </radialGradient>
 </defs>
 <path d="m311.65 46.41c-25.185 0-45.625 19.32-45.625 43.125s20.44 43.125 45.625 43.125 45.625-19.32 45.625-43.125-20.44-43.125-45.625-43.125z" fill="#7f7f7f" fill-rule="evenodd" stroke="#000" stroke-linejoin="round" stroke-width="5"/>
 <path d="m347.71 87.416c0 23.805-20.44 43.125-45.625 43.125s-45.625-19.32-45.625-43.125 20.44-43.125 45.625-43.125 45.625 19.32 45.625 43.125z" fill="#7f7f7f" fill-rule="evenodd" stroke="#000" stroke-linejoin="round" stroke-width="10"/>
 <path transform="translate(13.38 -3.7893)" d="m306.63 122.13h-3.7356l-0.02306-9.5259c-1.9216-0.10549-3.7818-0.40087-5.5804-0.88613s-3.5512-1.1604-5.2576-2.0254v-8.2917c1.7679 1.2448 3.5512 2.2048 5.3498 2.8799 1.814 0.65405 3.6511 1.0233 5.5112 1.1077v-9.8424l-0.76096-0.18989c-3.6742-0.88613-6.2876-2.2786-7.8402-4.1775-1.5373-1.8988-2.306-4.6311-2.306-8.1967 0-3.7766 0.93775-6.7198 2.8132-8.8297 1.8909-2.1309 4.5812-3.2914 8.0708-3.4812l0.02306-7.3106h3.7356v7.184c1.5373 0.16879 3.0746 0.43252 4.6119 0.79119s3.0823 0.82284 4.635 1.3925v8.0385c-1.5373-0.88613-3.0746-1.5718-4.6119-2.0571-1.5373-0.50636-3.0823-0.81229-4.635-0.91778v9.0828l0.73791 0.18988c3.9047 0.84394 6.6411 2.2575 8.2092 4.2408 1.5834 1.9622 2.3751 4.8737 2.3751 8.7347 0 3.8821-0.93775 6.8675-2.8132 8.9563-1.8755 2.0676-4.7118 3.2492-8.509 3.5445v9.5892zm-3.7356-35.983v-8.26c-1.0915 0.08439-1.9677 0.49581-2.6288 1.2343-0.64566 0.71734-0.96849 1.6351-0.96849 2.7533 0 1.2448 0.29976 2.2259 0.89932 2.9432 0.59954 0.69625 1.4989 1.1393 2.698 1.3292zm3.7356 10.317v8.798c1.3374-0.0211 2.3367-0.37977 2.9977-1.076 0.6764-0.69625 1.0146-1.7406 1.0146-3.1331 0-1.4347-0.30745-2.5002-0.92238-3.1964-0.61491-0.71734-1.6449-1.1815-3.09-1.3925zm-45.658 7.722h7.8402v-30.54l-8.0478 2.2786v-8.2917l8.0016-2.2786h8.4398v38.832h7.8402v8.4182h-24.074v-8.4182z" fill="none" stroke="#000" stroke-linejoin="round" stroke-width="5"/>
 <path transform="matrix(1.0576 0 0 1.2118 -10.158 -66)" d="m37.5 253.75c5-8.75 41.25-18.75 60-37.5 21.25-18.75 42.5-21.25 42.5-21.25s-1.25-13.75-16.25-23.75c-31.25-20 27.5-12.5 41.25 5 8.75-13.75 187.94-52.912 265.44 58.338 5-40 23.351 3.9432 32.101 0.19322 6.8944 0.57963 1.4302-2.9512 15.206-9.1753-3.75 12.5-8.9173 22.886-17.281 18.57-21.74-26.341-19.794-13.531-25.464 8.3247 6.25 22.5-12.5 73.75-37.5 142.5l-20 1.25c-12.5-16.25-15-36.25-22.5-57.5-57.5 25-133.75 18.75-173.75 3.75-2.5 18.75-20 48.75-28.75 62.5h-18.75c-13.75-13.75-25-75-25-87.5-12.5 0-68.75-7.5-71.25-26.25 14.583-3.3333 31.667-0.41667 43.75-10-14.167-6.6667-28.333-0.83333-42.5-1.25l-1.25-26.25z" fill="#f1ccd3" fill-rule="evenodd" stroke="#000" stroke-linejoin="round" stroke-width="8.8334"/>
 <path transform="matrix(1.0576 0 0 1.2118 -10.158 -66)" d="m127.06 222.65c-0.54409-11.97-32.445-3.3993-32.445 11.835 0 13.602 30.813 15.24 32.445-11.835z" fill="#fff" fill-rule="evenodd" stroke="#000" stroke-linejoin="round" stroke-width="8.8334"/>
 <path transform="matrix(1.0576 0 0 1.2118 -10.158 -66)" d="m102.23 221.42c-6.5291 2.1764-11.426 18.499-2.1764 20.131 8.7055 2.7205 15.235-20.676 2.1764-20.131z" fill-rule="evenodd" stroke="#000" stroke-width="3.75"/>
 <path transform="matrix(1.0576 0 0 1.2118 -10.158 -66)" d="m237.5 171.25s60.625-1.875 84.375 10c5.625-6.25 8.125-10.625 11.25-11.875-14.375-9.375-72.5-10.625-88.125-11.875-3.125 4.375-7.5 13.75-7.5 13.75z" fill-rule="evenodd" stroke="#000" stroke-width="1.25"/>
 <path transform="matrix(1.0576 0 0 1.2118 -10.158 -66)" d="m119.38 161.25s26.875 8.75 36.25 20c19.375-4.375-21.25-18.75-36.25-20z" fill-opacity=".25" fill-rule="evenodd"/>
 <path transform="matrix(1.0576 0 0 1.2118 -10.158 -66)" d="m160.62 223.12c-39.375-12.5-88.125 58.75-31.875 83.125 76.875 33.125 116.88-54.375 31.875-83.125z" fill="url(#a)" fill-rule="evenodd"/>
 <path transform="matrix(1.0576 0 0 1.2118 -10.158 -66)" d="m102.29 224.69c-3.8087-1.6323-12.514 8.1614-3.2646 15.779 2.7205 1.0882 8.7055-15.235 3.2646-15.779z" fill="#fff" fill-opacity=".5" fill-rule="evenodd"/>
 <path d="m38.601 243.2c115.66-86.371 204.99-168.79 368.93-62.14-187.02-109.45-369.51 116.2-368.93 62.14z" fill="#fff" fill-opacity=".5" fill-rule="evenodd"/>
</svg>
